<mxfile host="app.diagrams.net" modified="2023-05-04T06:52:05.139Z" agent="Mozilla/5.0 (Windows NT 10.0; Win64; x64) AppleWebKit/537.36 (KHTML, like Gecko) Chrome/111.0.0.0 Safari/537.36" version="21.2.7" etag="V_pMk26W4F51wW3xxHm6" type="github">
  <diagram name="Page-1" id="x2yFYaCvf33aH2A-Ah0F">
    <mxGraphModel>
      <root>
        <mxCell id="0" />
        <mxCell id="1" parent="0" />
      </root>
    </mxGraphModel>
  </diagram>
</mxfile>
